<?xml version="1.0" standalone="no"?>
<!DOCTYPE svg PUBLIC "-//W3C//DTD SVG 20010904//EN"
 "http://www.w3.org/TR/2001/REC-SVG-20010904/DTD/svg10.dtd">
<svg version="1.0" xmlns="http://www.w3.org/2000/svg"
 width="640.000000pt" height="640.000000pt" viewBox="0 0 640.000000 640.000000"
 preserveAspectRatio="xMidYMid meet">
<metadata>
Created by potrace 1.11, written by Peter Selinger 2001-2013
</metadata>
<g transform="translate(0.000000,640.000000) scale(0.100000,-0.100000)"
fill="#000000" stroke="none">
<path d="M1559 4797 c-2 -3 -35 -7 -74 -11 -233 -20 -534 -127 -741 -262 -394
-257 -651 -641 -724 -1081 -22 -135 -20 -375 4 -511 37 -203 123 -411 249
-601 113 -170 346 -389 509 -480 133 -73 173 -94 244 -122 72 -29 219 -75 269
-85 11 -2 43 -8 70 -14 101 -20 154 -24 325 -24 119 0 205 6 270 17 168 30
386 107 523 184 33 18 61 33 64 33 11 0 223 147 293 203 99 80 134 112 257
236 l103 105 93 -95 c312 -320 631 -525 971 -623 98 -29 114 -32 231 -51 80
-13 384 -13 455 0 19 3 61 11 93 16 81 14 237 60 332 98 367 146 701 455 870
805 66 137 105 260 140 446 14 72 13 345 -1 435 -53 338 -197 625 -434 866
-143 146 -249 225 -423 319 -119 63 -320 138 -422 156 -16 3 -48 9 -70 14
-139 31 -433 34 -595 6 -99 -17 -302 -77 -380 -112 -278 -126 -507 -290 -752
-538 l-108 -108 -108 108 c-104 106 -251 236 -322 285 -19 13 -37 27 -40 30
-22 28 -289 179 -395 224 -122 51 -310 105 -420 120 -52 7 -350 17 -356 12z
m336 -991 c219 -74 461 -263 669 -522 74 -93 76 -76 -17 -189 -154 -189 -349
-356 -522 -447 -175 -92 -379 -111 -575 -51 -218 66 -396 231 -462 429 -32 97
-31 261 2 353 78 219 258 375 504 436 130 32 289 28 401 -9z m3033 4 c298 -84
498 -315 508 -585 6 -172 -54 -320 -182 -450 -37 -38 -172 -135 -187 -135 -3
0 -22 -8 -43 -17 -22 -9 -43 -18 -49 -19 -5 -2 -37 -11 -70 -20 -83 -24 -277
-25 -363 -1 -111 30 -286 124 -388 209 -115 95 -236 221 -347 360 l-38 48 58
72 c64 80 60 75 157 177 174 182 353 302 536 360 89 28 100 29 225 25 73 -2
135 -10 183 -24z"/>
</g>
</svg>
